<svg width="10" height="11" viewBox="0 0 10 11" fill="none" xmlns="http://www.w3.org/2000/svg">
<path fill-rule="evenodd" clip-rule="evenodd" d="M8.83564 1.65752C9.03447 1.65752 9.2 1.8226 9.2 2.03267V2.22689C9.2 2.43184 9.03447 2.60204 8.83564 2.60204H0.364858C0.165528 2.60204 0 2.43184 0 2.22689V2.03267C0 1.8226 0.165528 1.65752 0.364858 1.65752H1.85511C2.15783 1.65752 2.42129 1.44234 2.48939 1.13874L2.56743 0.79017C2.68872 0.315352 3.08788 0 3.54469 0H5.65531C6.10715 0 6.51078 0.315352 6.6276 0.765126L6.71111 1.13823C6.77871 1.44234 7.04216 1.65752 7.34539 1.65752H8.83564ZM8.0785 8.75748C8.23409 7.30747 8.50649 3.86262 8.50649 3.82786C8.51643 3.72257 8.48213 3.62291 8.41403 3.54267C8.34096 3.46753 8.2485 3.42307 8.1466 3.42307H1.05721C0.954812 3.42307 0.857383 3.46753 0.78978 3.54267C0.721183 3.62291 0.687381 3.72257 0.692352 3.82786C0.693265 3.83425 0.70304 3.95559 0.719381 4.15846C0.791974 5.05967 0.994163 7.56973 1.12481 8.75748C1.21727 9.63249 1.7914 10.1824 2.62302 10.2024C3.26475 10.2172 3.92587 10.2223 4.6019 10.2223C5.23867 10.2223 5.88537 10.2172 6.54699 10.2024C7.40744 10.1876 7.98107 9.64732 8.0785 8.75748Z" fill="#E71D36"/>
</svg>
